<svg xmlns="http://www.w3.org/2000/svg" viewBox="0 0 512 512" fill="none">
  <rect width="512" height="512" rx="110" fill="#0e1a1f"/>
  <circle cx="256" cy="256" r="170" fill="#13242c"/>
  <path d="M156 308c28-25 54-56 100-56s72 31 100 56c-28 25-54 56-100 56s-72-31-100-56Z" fill="#3ad29f" opacity=".9"/>
  <path d="M256 166c44 0 80 36 80 80 0 16-5 30-12 43-18 36-42 76-68 76s-50-40-68-76c-7-13-12-27-12-43 0-44 36-80 80-80Z" fill="#3ad29f" opacity=".75"/>
  <circle cx="256" cy="230" r="28" fill="#0e1a1f"/>
</svg>
